<svg width="1887" height="1073" viewBox="0 0 1887 1073" fill="none" xmlns="http://www.w3.org/2000/svg">
<g opacity="0.2" clip-path="url(#clip0_2545_555)">
<path d="M142.097 789C63.5443 789 0 852.544 0 931.097C0 1009.46 63.5443 1073.19 142.097 1073.19C220.456 1073.19 284.195 1009.65 284.195 931.097C284 852.544 220.456 789 142.097 789ZM142.097 1064.03C68.6122 1064.03 9.16129 1004.58 9.16129 931.097C9.16129 857.612 68.6122 798.161 142.097 798.161C215.583 798.161 275.034 857.612 275.034 931.097C275.034 1004.39 215.388 1064.03 142.097 1064.03Z" fill="white"/>
<path d="M142.099 819.603C80.6986 819.603 30.7988 869.502 30.7988 930.902C30.7988 992.303 80.6986 1042.2 142.099 1042.2C203.499 1042.2 253.399 992.498 253.399 931.097C253.399 869.502 203.499 819.603 142.099 819.603ZM142.099 1025.24C90.0548 1025.24 47.757 982.946 47.757 930.902C47.757 878.859 90.0548 836.561 142.099 836.561C194.143 836.561 236.441 878.859 236.441 930.902C236.441 982.946 194.143 1025.24 142.099 1025.24Z" fill="white"/>
<path d="M142.098 868.527C107.597 868.527 79.5283 896.596 79.5283 931.097C79.5283 965.598 107.402 993.667 142.098 993.667C176.599 993.667 204.668 965.598 204.668 931.097C204.473 896.596 176.599 868.527 142.098 868.527ZM142.098 964.623C123.58 964.623 108.572 949.614 108.572 931.097C108.572 912.579 123.58 897.571 142.098 897.571C160.616 897.571 175.624 912.579 175.624 931.097C175.624 949.614 160.616 964.623 142.098 964.623Z" fill="white"/>
</g>
<g opacity="0.8" clip-path="url(#clip1_2545_555)">
<path d="M1705.34 787.264C1705.34 788.784 1704.19 789.923 1702.67 789.923C1701.14 789.923 1700 788.784 1700 787.264C1700 785.745 1701.14 784.605 1702.67 784.605C1704.19 784.605 1705.34 785.872 1705.34 787.264Z" fill="white"/>
<path d="M1728.08 787.264C1728.08 788.784 1726.93 789.923 1725.41 789.923C1723.88 789.923 1722.74 788.784 1722.74 787.264C1722.74 785.745 1723.88 784.605 1725.41 784.605C1726.8 784.605 1728.08 785.872 1728.08 787.264Z" fill="white"/>
<path d="M1750.69 787.264C1750.69 788.784 1749.54 789.923 1748.02 789.923C1746.5 789.923 1745.35 788.784 1745.35 787.264C1745.35 785.745 1746.5 784.605 1748.02 784.605C1749.54 784.605 1750.69 785.872 1750.69 787.264Z" fill="white"/>
<path d="M1773.43 787.264C1773.43 788.784 1772.28 789.923 1770.76 789.923C1769.24 789.923 1768.09 788.784 1768.09 787.264C1768.09 785.745 1769.24 784.605 1770.76 784.605C1772.28 784.605 1773.43 785.872 1773.43 787.264Z" fill="white"/>
<path d="M1796.17 787.264C1796.17 788.784 1795.02 789.923 1793.5 789.923C1791.98 789.923 1790.83 788.784 1790.83 787.264C1790.83 785.745 1791.98 784.605 1793.5 784.605C1794.9 784.605 1796.17 785.872 1796.17 787.264Z" fill="white"/>
<path d="M1818.91 787.264C1818.91 788.784 1817.76 789.923 1816.24 789.923C1814.72 789.923 1813.57 788.784 1813.57 787.264C1813.57 785.745 1814.72 784.605 1816.24 784.605C1817.76 784.605 1818.91 785.872 1818.91 787.264Z" fill="white"/>
<path d="M1841.52 787.264C1841.52 788.784 1840.38 789.923 1838.85 789.923C1837.33 789.923 1836.18 788.784 1836.18 787.264C1836.18 785.745 1837.33 784.605 1838.85 784.605C1840.38 784.605 1841.52 785.872 1841.52 787.264Z" fill="white"/>
<path d="M1864.26 787.264C1864.26 788.784 1863.12 789.923 1861.59 789.923C1860.07 789.923 1858.92 788.784 1858.92 787.264C1858.92 785.745 1860.07 784.605 1861.59 784.605C1863.12 784.605 1864.26 785.872 1864.26 787.264Z" fill="white"/>
<path d="M1887 787.264C1887 788.784 1885.86 789.923 1884.33 789.923C1882.81 789.923 1881.66 788.784 1881.66 787.264C1881.66 785.745 1882.81 784.605 1884.33 784.605C1885.73 784.605 1887 785.872 1887 787.264Z" fill="white"/>
<path d="M1705.34 806.131C1705.34 807.65 1704.19 808.79 1702.67 808.79C1701.14 808.79 1700 807.65 1700 806.131C1700 804.611 1701.14 803.472 1702.67 803.472C1704.19 803.472 1705.34 804.611 1705.34 806.131Z" fill="white"/>
<path d="M1728.08 806.131C1728.08 807.65 1726.93 808.79 1725.41 808.79C1723.88 808.79 1722.74 807.65 1722.74 806.131C1722.74 804.611 1723.88 803.472 1725.41 803.472C1726.8 803.472 1728.08 804.611 1728.08 806.131Z" fill="white"/>
<path d="M1750.69 806.131C1750.69 807.65 1749.54 808.79 1748.02 808.79C1746.5 808.79 1745.35 807.65 1745.35 806.131C1745.35 804.611 1746.5 803.472 1748.02 803.472C1749.54 803.472 1750.69 804.611 1750.69 806.131Z" fill="white"/>
<path d="M1773.43 806.131C1773.43 807.65 1772.28 808.79 1770.76 808.79C1769.24 808.79 1768.09 807.65 1768.09 806.131C1768.09 804.611 1769.24 803.472 1770.76 803.472C1772.28 803.472 1773.43 804.611 1773.43 806.131Z" fill="white"/>
<path d="M1796.17 806.131C1796.17 807.65 1795.02 808.79 1793.5 808.79C1791.98 808.79 1790.83 807.65 1790.83 806.131C1790.83 804.611 1791.98 803.472 1793.5 803.472C1794.9 803.472 1796.17 804.611 1796.17 806.131Z" fill="white"/>
<path d="M1818.91 806.131C1818.91 807.65 1817.76 808.79 1816.24 808.79C1814.72 808.79 1813.57 807.65 1813.57 806.131C1813.57 804.611 1814.72 803.472 1816.24 803.472C1817.76 803.472 1818.91 804.611 1818.91 806.131Z" fill="white"/>
<path d="M1841.52 806.131C1841.52 807.65 1840.38 808.79 1838.85 808.79C1837.33 808.79 1836.18 807.65 1836.18 806.131C1836.18 804.611 1837.33 803.472 1838.85 803.472C1840.38 803.472 1841.52 804.611 1841.52 806.131Z" fill="white"/>
<path d="M1864.26 806.131C1864.26 807.65 1863.12 808.79 1861.59 808.79C1860.07 808.79 1858.92 807.65 1858.92 806.131C1858.92 804.611 1860.07 803.472 1861.59 803.472C1863.12 803.472 1864.26 804.611 1864.26 806.131Z" fill="white"/>
<path d="M1887 806.131C1887 807.65 1885.86 808.79 1884.33 808.79C1882.81 808.79 1881.66 807.65 1881.66 806.131C1881.66 804.611 1882.81 803.472 1884.33 803.472C1885.73 803.472 1887 804.611 1887 806.131Z" fill="white"/>
<path d="M1705.34 749.659C1705.34 751.178 1704.19 752.318 1702.67 752.318C1701.14 752.318 1700 751.178 1700 749.659C1700 748.14 1701.14 747 1702.67 747C1704.19 747 1705.34 748.14 1705.34 749.659Z" fill="white"/>
<path d="M1728.08 749.659C1728.08 751.178 1726.93 752.318 1725.41 752.318C1723.88 752.318 1722.74 751.178 1722.74 749.659C1722.74 748.14 1723.88 747 1725.41 747C1726.8 747 1728.08 748.14 1728.08 749.659Z" fill="white"/>
<path d="M1750.69 749.659C1750.69 751.178 1749.54 752.318 1748.02 752.318C1746.5 752.318 1745.35 751.178 1745.35 749.659C1745.35 748.14 1746.62 747 1748.02 747C1749.54 747 1750.69 748.14 1750.69 749.659Z" fill="white"/>
<path d="M1773.43 749.659C1773.43 751.178 1772.28 752.318 1770.76 752.318C1769.24 752.318 1768.09 751.178 1768.09 749.659C1768.09 748.14 1769.36 747 1770.76 747C1772.16 747 1773.43 748.14 1773.43 749.659Z" fill="white"/>
<path d="M1796.17 749.659C1796.17 751.178 1795.02 752.318 1793.5 752.318C1791.98 752.318 1790.83 751.178 1790.83 749.659C1790.83 748.14 1791.98 747 1793.5 747C1794.9 747 1796.17 748.14 1796.17 749.659Z" fill="white"/>
<path d="M1818.91 749.659C1818.91 751.178 1817.76 752.318 1816.24 752.318C1814.72 752.318 1813.57 751.178 1813.57 749.659C1813.57 748.14 1814.72 747 1816.24 747C1817.76 747 1818.91 748.14 1818.91 749.659Z" fill="white"/>
<path d="M1841.52 749.659C1841.52 751.178 1840.38 752.318 1838.85 752.318C1837.33 752.318 1836.18 751.178 1836.18 749.659C1836.18 748.14 1837.33 747 1838.85 747C1840.38 747 1841.52 748.14 1841.52 749.659Z" fill="white"/>
<path d="M1864.26 749.659C1864.26 751.178 1863.12 752.318 1861.59 752.318C1860.07 752.318 1858.92 751.178 1858.92 749.659C1858.92 748.14 1860.07 747 1861.59 747C1863.12 747 1864.26 748.14 1864.26 749.659Z" fill="white"/>
<path d="M1887 749.659C1887 751.178 1885.86 752.318 1884.33 752.318C1882.81 752.318 1881.66 751.178 1881.66 749.659C1881.66 748.14 1882.81 747 1884.33 747C1885.73 747 1887 748.14 1887 749.659Z" fill="white"/>
<path d="M1705.34 768.525C1705.34 770.045 1704.19 771.184 1702.67 771.184C1701.14 771.184 1700 769.918 1700 768.525C1700 767.006 1701.14 765.866 1702.67 765.866C1704.19 765.866 1705.34 767.006 1705.34 768.525Z" fill="white"/>
<path d="M1728.08 768.525C1728.08 770.045 1726.93 771.184 1725.41 771.184C1723.88 771.184 1722.74 770.045 1722.74 768.525C1722.74 767.006 1723.88 765.866 1725.41 765.866C1726.8 765.866 1728.08 767.006 1728.08 768.525Z" fill="white"/>
<path d="M1750.69 768.525C1750.69 770.045 1749.54 771.184 1748.02 771.184C1746.5 771.184 1745.35 770.045 1745.35 768.525C1745.35 767.006 1746.5 765.866 1748.02 765.866C1749.54 765.866 1750.69 767.006 1750.69 768.525Z" fill="white"/>
<path d="M1773.43 768.525C1773.43 770.045 1772.28 771.184 1770.76 771.184C1769.24 771.184 1768.09 770.045 1768.09 768.525C1768.09 767.006 1769.24 765.866 1770.76 765.866C1772.28 765.866 1773.43 767.006 1773.43 768.525Z" fill="white"/>
<path d="M1796.17 768.525C1796.17 770.045 1795.02 771.184 1793.5 771.184C1791.98 771.184 1790.83 770.045 1790.83 768.525C1790.83 767.006 1791.98 765.866 1793.5 765.866C1794.9 765.866 1796.17 767.006 1796.17 768.525Z" fill="white"/>
<path d="M1818.91 768.525C1818.91 770.045 1817.76 771.184 1816.24 771.184C1814.72 771.184 1813.57 770.045 1813.57 768.525C1813.57 767.006 1814.72 765.866 1816.24 765.866C1817.76 765.866 1818.91 767.006 1818.91 768.525Z" fill="white"/>
<path d="M1841.52 768.525C1841.52 770.045 1840.38 771.184 1838.85 771.184C1837.33 771.184 1836.18 770.045 1836.18 768.525C1836.18 767.006 1837.33 765.866 1838.85 765.866C1840.38 765.866 1841.52 767.006 1841.52 768.525Z" fill="white"/>
<path d="M1864.26 768.525C1864.26 770.045 1863.12 771.184 1861.59 771.184C1860.07 771.184 1858.92 770.045 1858.92 768.525C1858.92 767.006 1860.07 765.866 1861.59 765.866C1863.12 765.866 1864.26 767.006 1864.26 768.525Z" fill="white"/>
<path d="M1887 768.525C1887 770.045 1885.86 771.184 1884.33 771.184C1882.81 771.184 1881.66 770.045 1881.66 768.525C1881.66 767.006 1882.81 765.866 1884.33 765.866C1885.73 765.866 1887 767.006 1887 768.525Z" fill="white"/>
<path d="M1705.34 824.87C1705.34 826.389 1704.19 827.529 1702.67 827.529C1701.14 827.529 1700 826.389 1700 824.87C1700 823.35 1701.14 822.211 1702.67 822.211C1704.19 822.211 1705.34 823.477 1705.34 824.87Z" fill="white"/>
<path d="M1728.08 824.87C1728.08 826.389 1726.93 827.529 1725.41 827.529C1723.88 827.529 1722.74 826.389 1722.74 824.87C1722.74 823.35 1723.88 822.211 1725.41 822.211C1726.8 822.211 1728.08 823.477 1728.08 824.87Z" fill="white"/>
<path d="M1750.69 824.87C1750.69 826.389 1749.54 827.529 1748.02 827.529C1746.5 827.529 1745.35 826.389 1745.35 824.87C1745.35 823.35 1746.5 822.211 1748.02 822.211C1749.54 822.211 1750.69 823.477 1750.69 824.87Z" fill="white"/>
<path d="M1773.43 824.87C1773.43 826.389 1772.28 827.529 1770.76 827.529C1769.24 827.529 1768.09 826.389 1768.09 824.87C1768.09 823.35 1769.24 822.211 1770.76 822.211C1772.28 822.211 1773.43 823.477 1773.43 824.87Z" fill="white"/>
<path d="M1796.17 824.87C1796.17 826.389 1795.02 827.529 1793.5 827.529C1791.98 827.529 1790.83 826.389 1790.83 824.87C1790.83 823.35 1791.98 822.211 1793.5 822.211C1794.9 822.211 1796.17 823.477 1796.17 824.87Z" fill="white"/>
<path d="M1818.91 824.87C1818.91 826.389 1817.76 827.529 1816.24 827.529C1814.72 827.529 1813.57 826.389 1813.57 824.87C1813.57 823.35 1814.72 822.211 1816.24 822.211C1817.76 822.211 1818.91 823.477 1818.91 824.87Z" fill="white"/>
<path d="M1841.52 824.87C1841.52 826.389 1840.38 827.529 1838.85 827.529C1837.33 827.529 1836.18 826.389 1836.18 824.87C1836.18 823.35 1837.33 822.211 1838.85 822.211C1840.38 822.211 1841.52 823.477 1841.52 824.87Z" fill="white"/>
<path d="M1864.26 824.87C1864.26 826.389 1863.12 827.529 1861.59 827.529C1860.07 827.529 1858.92 826.389 1858.92 824.87C1858.92 823.35 1860.07 822.211 1861.59 822.211C1863.12 822.211 1864.26 823.477 1864.26 824.87Z" fill="white"/>
<path d="M1887 824.87C1887 826.389 1885.86 827.529 1884.33 827.529C1882.81 827.529 1881.66 826.389 1881.66 824.87C1881.66 823.35 1882.81 822.211 1884.33 822.211C1885.73 822.211 1887 823.477 1887 824.87Z" fill="white"/>
<path d="M1705.34 843.736C1705.34 845.256 1704.19 846.395 1702.67 846.395C1701.14 846.395 1700 845.256 1700 843.736C1700 842.217 1701.14 841.077 1702.67 841.077C1704.19 841.077 1705.34 842.217 1705.34 843.736Z" fill="white"/>
<path d="M1728.08 843.736C1728.08 845.256 1726.93 846.395 1725.41 846.395C1723.88 846.395 1722.74 845.256 1722.74 843.736C1722.74 842.217 1723.88 841.077 1725.41 841.077C1726.8 841.077 1728.08 842.217 1728.08 843.736Z" fill="white"/>
<path d="M1750.69 843.736C1750.69 845.256 1749.54 846.395 1748.02 846.395C1746.5 846.395 1745.35 845.256 1745.35 843.736C1745.35 842.217 1746.5 841.077 1748.02 841.077C1749.54 841.077 1750.69 842.217 1750.69 843.736Z" fill="white"/>
<path d="M1770.76 846.395C1772.23 846.395 1773.43 845.205 1773.43 843.736C1773.43 842.268 1772.23 841.077 1770.76 841.077C1769.29 841.077 1768.09 842.268 1768.09 843.736C1768.09 845.205 1769.29 846.395 1770.76 846.395Z" fill="white"/>
<path d="M1796.17 843.736C1796.17 845.256 1795.02 846.395 1793.5 846.395C1791.98 846.395 1790.83 845.256 1790.83 843.736C1790.83 842.217 1791.98 841.077 1793.5 841.077C1794.9 841.077 1796.17 842.217 1796.17 843.736Z" fill="white"/>
<path d="M1818.91 843.736C1818.91 845.256 1817.76 846.395 1816.24 846.395C1814.72 846.395 1813.57 845.256 1813.57 843.736C1813.57 842.217 1814.72 841.077 1816.24 841.077C1817.76 841.077 1818.91 842.217 1818.91 843.736Z" fill="white"/>
<path d="M1841.52 843.736C1841.52 845.256 1840.38 846.395 1838.85 846.395C1837.33 846.395 1836.18 845.256 1836.18 843.736C1836.18 842.217 1837.33 841.077 1838.85 841.077C1840.38 841.077 1841.52 842.217 1841.52 843.736Z" fill="white"/>
<path d="M1861.59 846.395C1863.07 846.395 1864.26 845.205 1864.26 843.736C1864.26 842.268 1863.07 841.077 1861.59 841.077C1860.12 841.077 1858.92 842.268 1858.92 843.736C1858.92 845.205 1860.12 846.395 1861.59 846.395Z" fill="white"/>
<path d="M1887 843.736C1887 845.256 1885.86 846.395 1884.33 846.395C1882.81 846.395 1881.66 845.256 1881.66 843.736C1881.66 842.217 1882.81 841.077 1884.33 841.077C1885.73 841.077 1887 842.217 1887 843.736Z" fill="white"/>
<path d="M1705.34 862.601C1705.34 864.121 1704.19 865.26 1702.67 865.26C1701.14 865.26 1700 864.121 1700 862.601C1700 861.082 1701.14 859.942 1702.67 859.942C1704.19 859.942 1705.34 861.082 1705.34 862.601Z" fill="white"/>
<path d="M1728.08 862.601C1728.08 864.121 1726.93 865.26 1725.41 865.26C1723.88 865.26 1722.74 864.121 1722.74 862.601C1722.74 861.082 1723.88 859.942 1725.41 859.942C1726.8 859.942 1728.08 861.082 1728.08 862.601Z" fill="white"/>
<path d="M1750.69 862.601C1750.69 864.121 1749.54 865.26 1748.02 865.26C1746.5 865.26 1745.35 864.121 1745.35 862.601C1745.35 861.082 1746.5 859.942 1748.02 859.942C1749.54 859.942 1750.69 861.082 1750.69 862.601Z" fill="white"/>
<path d="M1773.43 862.601C1773.43 864.121 1772.28 865.26 1770.76 865.26C1769.24 865.26 1768.09 864.121 1768.09 862.601C1768.09 861.082 1769.24 859.942 1770.76 859.942C1772.28 859.942 1773.43 861.082 1773.43 862.601Z" fill="white"/>
<path d="M1796.17 862.601C1796.17 864.121 1795.02 865.26 1793.5 865.26C1791.98 865.26 1790.83 864.121 1790.83 862.601C1790.83 861.082 1791.98 859.942 1793.5 859.942C1794.9 859.942 1796.17 861.082 1796.17 862.601Z" fill="white"/>
<path d="M1818.91 862.601C1818.91 864.121 1817.76 865.26 1816.24 865.26C1814.72 865.26 1813.57 864.121 1813.57 862.601C1813.57 861.082 1814.72 859.942 1816.24 859.942C1817.76 859.942 1818.91 861.082 1818.91 862.601Z" fill="white"/>
<path d="M1841.52 862.601C1841.52 864.121 1840.38 865.26 1838.85 865.26C1837.33 865.26 1836.18 864.121 1836.18 862.601C1836.18 861.082 1837.33 859.942 1838.85 859.942C1840.38 859.942 1841.52 861.082 1841.52 862.601Z" fill="white"/>
<path d="M1864.26 862.601C1864.26 864.121 1863.12 865.26 1861.59 865.26C1860.07 865.26 1858.92 864.121 1858.92 862.601C1858.92 861.082 1860.07 859.942 1861.59 859.942C1863.12 859.942 1864.26 861.082 1864.26 862.601Z" fill="white"/>
<path d="M1887 862.601C1887 864.121 1885.86 865.26 1884.33 865.26C1882.81 865.26 1881.66 864.121 1881.66 862.601C1881.66 861.082 1882.81 859.942 1884.33 859.942C1885.73 859.942 1887 861.082 1887 862.601Z" fill="white"/>
<path d="M1705.34 881.341C1705.34 882.86 1704.19 884 1702.67 884C1701.14 884 1700 882.86 1700 881.341C1700 879.821 1701.14 878.682 1702.67 878.682C1704.19 878.682 1705.34 879.948 1705.34 881.341Z" fill="white"/>
<path d="M1728.08 881.341C1728.08 882.86 1726.93 884 1725.41 884C1723.88 884 1722.74 882.86 1722.74 881.341C1722.74 879.821 1723.88 878.682 1725.41 878.682C1726.8 878.682 1728.08 879.948 1728.08 881.341Z" fill="white"/>
<path d="M1750.69 881.341C1750.69 882.86 1749.54 884 1748.02 884C1746.5 884 1745.35 882.86 1745.35 881.341C1745.35 879.821 1746.5 878.682 1748.02 878.682C1749.54 878.682 1750.69 879.948 1750.69 881.341Z" fill="white"/>
<path d="M1773.43 881.341C1773.43 882.86 1772.28 884 1770.76 884C1769.24 884 1768.09 882.86 1768.09 881.341C1768.09 879.821 1769.24 878.682 1770.76 878.682C1772.28 878.682 1773.43 879.948 1773.43 881.341Z" fill="white"/>
<path d="M1796.17 881.341C1796.17 882.86 1795.02 884 1793.5 884C1791.98 884 1790.83 882.86 1790.83 881.341C1790.83 879.821 1791.98 878.682 1793.5 878.682C1794.9 878.682 1796.17 879.948 1796.17 881.341Z" fill="white"/>
<path d="M1818.91 881.341C1818.91 882.86 1817.76 884 1816.24 884C1814.72 884 1813.57 882.86 1813.57 881.341C1813.57 879.821 1814.72 878.682 1816.24 878.682C1817.76 878.682 1818.91 879.948 1818.91 881.341Z" fill="white"/>
<path d="M1841.52 881.341C1841.52 882.86 1840.38 884 1838.85 884C1837.33 884 1836.18 882.86 1836.18 881.341C1836.18 879.821 1837.33 878.682 1838.85 878.682C1840.38 878.682 1841.52 879.948 1841.52 881.341Z" fill="white"/>
<path d="M1864.26 881.341C1864.26 882.86 1863.12 884 1861.59 884C1860.07 884 1858.92 882.86 1858.92 881.341C1858.92 879.821 1860.07 878.682 1861.59 878.682C1863.12 878.682 1864.26 879.948 1864.26 881.341Z" fill="white"/>
<path d="M1887 881.341C1887 882.86 1885.86 884 1884.33 884C1882.81 884 1881.66 882.86 1881.66 881.341C1881.66 879.821 1882.81 878.682 1884.33 878.682C1885.73 878.682 1887 879.948 1887 881.341Z" fill="white"/>
</g>
<g opacity="0.3">
<path d="M1741.81 75.2212L1751.47 84.8799L1725.78 110.563L1700.1 84.8799L1709.68 75.2943L1725.71 91.319L1741.81 75.2212Z" fill="white"/>
<path d="M1741.81 40.5386L1751.39 50.1241L1725.71 75.8075L1700.1 50.1973L1709.76 40.5386L1725.78 56.5632L1741.81 40.5386Z" fill="white"/>
<path d="M1741.73 5.78165L1751.39 15.4404L1725.78 41.0506L1700.1 15.3672L1709.68 5.78165L1725.71 21.8063L1741.73 5.78165Z" fill="white"/>
<path d="M1741.81 -28.9761L1751.46 -19.3174L1725.78 6.36601L1700.1 -19.3174L1709.76 -28.9761L1725.78 -12.9514L1741.81 -28.9761Z" fill="white"/>
</g>
<path opacity="0.3" d="M774 808.553C760.071 822.482 737.377 822.482 723.447 808.553C709.518 794.623 709.518 771.929 723.447 758L774 808.553Z" fill="white"/>
<g opacity="0.3">
<path d="M828.486 529.89C839.205 529.89 847.937 521.165 847.937 510.453C847.937 499.742 839.205 491.017 828.486 491.017L828.486 529.89Z" fill="white"/>
<path d="M798.141 529.89C808.861 529.89 817.592 521.165 817.592 510.453C817.592 499.742 808.861 491.017 798.141 491.017L798.141 529.89Z" fill="white"/>
<path d="M767.797 529.89C778.516 529.89 787.248 521.165 787.248 510.453C787.248 499.742 778.516 491.017 767.797 491.017L767.797 529.89Z" fill="white"/>
</g>
<g opacity="0.3">
<path d="M126.301 144.921L126.301 133L158 133L158 164.699L146.169 164.699L146.169 144.921L126.301 144.921Z" fill="white"/>
<path d="M104.899 166.325L104.899 154.494L136.598 154.494L136.598 186.103L124.677 186.103L124.677 166.325L104.899 166.325Z" fill="white"/>
<path d="M83.4951 187.819L83.4951 175.898L115.104 175.898L115.104 207.597L103.273 207.597L103.273 187.819L83.4951 187.819Z" fill="white"/>
<path d="M62.0014 209.222L62.0014 197.301L93.7002 197.301L93.7002 229L81.7793 229L81.7793 209.222L62.0014 209.222Z" fill="white"/>
</g>
<defs>
<clipPath id="clip0_2545_555">
<rect width="284" height="284" fill="white" transform="translate(0 789)"/>
</clipPath>
<clipPath id="clip1_2545_555">
<rect width="187" height="137" fill="white" transform="translate(1700 747)"/>
</clipPath>
</defs>
</svg>
